<svg xmlns="http://www.w3.org/2000/svg" width="24" height="24" viewBox="0 0 24 24" fill="none" stroke="currentColor" stroke-width="2" stroke-linecap="round" stroke-linejoin="round">
  <path d="M12 18a6 6 0 0 0 6-6"/>
  <path d="M19.5 19.5 18 21"/>
  <path d="m12 20-2 2"/>
  <path d="M8 14a6 6 0 0 0 6 6"/>
  <path d="m16.37 7.66 4.34-4.35"/>
  <path d="m9 7-2 2 9 9"/>
  <path d="m9.17 13.8 1.47-1.47"/>
  <path d="M14 9c-1.3-1.34-3-2-5-2"/>
  <path d="m7 7-2.5-2.5C3.23 3.25 3 2.77 3 2.26 3 1.03 4.5.5 5.5 2l.5.5"/>
  <path d="m7.44 7.97.56.53c.76.73 2.26.75 3.05-.03.27-.27.43-.6.44-.95 0-.33-.14-.65-.38-.89L7.8 4.31c-.2-.2-.36-.4-.47-.6a1.5 1.5 0 0 1-.24-.82c0-.43.21-.81.58-1.18C8.5.88 9.79 1 10.26 1.47l3.28 3.3"/>
</svg>
